. 
 
http://www.torrenting.com          :     Once & For all ;)


               www . Torrenting . Com 

(((((((((((((= Enjoy No RAR releases =))))))))))))))))))))


...................................NFO:....................................

.[URL=http://img41.imageshack.us/i/threemusketeers3dmoviep.jpg/][IMG]http://img41.imageshack.us/img41/2186/threemusketeers3dmoviep.jpg[/IMG][/URL]

Complete name                    : The Three Musketeers 2011 480p BRRip x264 AC3-DTRG.mkv
Format                           : Matroska
Format version                   : Version 2
File size                        : 1.37 GiB
Duration                         : 1h 50mn
Overall bit rate                 : 1 772 Kbps
Encoded date                     : UTC 2012-02-03 19:39:42
Writing application              : mkvmerge v4.9.1 ('Ich will') built on Jul 11 2011 23:53:15
Writing library                  : libebml v1.2.1 + libmatroska v1.1.1


Video
ID                               : 1
Format                           : AVC
Format/Info                      : Advanced Video Codec
Format profile                   : High@L4.1
Format settings, CABAC           : Yes
Format settings, ReFrames        : 4 frames
Codec ID                         : V_MPEG4/ISO/AVC
Duration                         : 1h 50mn
Bit rate                         : 1 322 Kbps
Width                            : 720 pixels
Height                           : 304 pixels
Display aspect ratio             : 2.35:1
Frame rate                       : 23.976 fps
Color space                      : YUV
Chroma subsampling               : 4:2:0
Bit depth                        : 8 bits
Scan type                        : Progressive
Bits/(Pixel*Frame)               : 0.252
Stream size                      : 1 019 MiB (73%)
Writing library                  : x264 core 116 r2074 2641b9e
Language                         : English
Default                          : Yes
Forced                           : No
Source                           : 1080p, cheers...

Audio
ID                               : 2
Format                           : AC-3
Format/Info                      : Audio Coding 3
Mode extension                   : CM (complete main)
Codec ID                         : A_AC3
Duration                         : 1h 50mn
Bit rate mode                    : Constant
Bit rate                         : 448 Kbps
Channel(s)                       : 6 channels
Channel positions                : Front: L C R, Side: L R, LFE
Sampling rate                    : 48.0 KHz
Bit depth                        : 16 bits
Compression mode                 : Lossy
Stream size                      : 354 MiB (25%)
Default                          : Yes
Forced                           : No
Source                           : 1080p, cheers...

iMDB: http://www.imdb.com/title/tt1509767/

Encoder: Kareemzos..

DTRG bringing the p2p world yet another release, The Three Musketeers 2011 480p BRRip.....

straight forward encode tbh, sharpened and left colors untouched and x264'd it...
check the sample before downloading because the screens cant tell you the real Q of
the release, enjoy folks.....

[b][i][size=4]SCREENSHOTS:[/b][/i][/size]

[URL=http://img862.imageshack.us/i/46369863.png/][IMG]http://img862.imageshack.us/img862/7316/46369863.png[/IMG][/URL]
[URL=http://img856.imageshack.us/i/68213270.png/][IMG]http://img856.imageshack.us/img856/338/68213270.png[/IMG][/URL]
[URL=http://img684.imageshack.us/i/55414893.png/][IMG]http://img684.imageshack.us/img684/5632/55414893.png[/IMG][/URL]
[URL=http://img694.imageshack.us/i/60825255.png/][IMG]http://img694.imageshack.us/img694/7884/60825255.png[/IMG][/URL]
[URL=http://img850.imageshack.us/i/54337059.png/][IMG]http://img850.imageshack.us/img850/2822/54337059.png[/IMG][/URL]
[URL=http://img607.imageshack.us/i/37874925.png/][IMG]http://img607.imageshack.us/img607/3300/37874925.png[/IMG][/URL]
[URL=http://img848.imageshack.us/i/15798330.png/][IMG]http://img848.imageshack.us/img848/2333/15798330.png[/IMG][/URL]
[URL=http://img641.imageshack.us/i/22411637.png/][IMG]http://img641.imageshack.us/img641/2543/22411637.png[/IMG][/URL]
[URL=http://img859.imageshack.us/i/57835864.png/][IMG]http://img859.imageshack.us/img859/8027/57835864.png[/IMG][/URL]
[URL=http://img69.imageshack.us/i/42386073.png/][IMG]http://img69.imageshack.us/img69/4214/42386073.png[/IMG][/URL]
[URL=http://img802.imageshack.us/i/82315558.png/][IMG]http://img802.imageshack.us/img802/1668/82315558.png[/IMG][/URL]
[URL=http://img29.imageshack.us/i/98610735.png/][IMG]http://img29.imageshack.us/img29/3294/98610735.png[/IMG][/URL]
[URL=http://img51.imageshack.us/i/30498076.png/][IMG]http://img51.imageshack.us/img51/4011/30498076.png[/IMG][/URL]
[URL=http://img716.imageshack.us/i/56045511.png/][IMG]http://img716.imageshack.us/img716/7330/56045511.png[/IMG][/URL]
[URL=http://img688.imageshack.us/i/97425428.png/][IMG]http://img688.imageshack.us/img688/6093/97425428.png[/IMG][/URL]
[URL=http://img3.imageshack.us/i/20790117.png/][IMG]http://img3.imageshack.us/img3/6010/20790117.png[/IMG][/URL]

Greetz to EMBER, ETRG, BHRG, FYA, 26k, CreWSaDe, RemixHD, LEGiTiMATE.......and maybe many more...........